{"title":"Act.of.Valor.2012.720p.BRrip.XviD.AC3-INFERNO","uid":7277897,"size":2896386048,"categoryP":"video","categoryS":"hd___movies","magnet":"?xt=urn:btih:b8b68ebd0d8066e0a38c82a9d30a543733992ec4&amp;dn=Act.of.Valor.2012.720p.BRrip.XviD.AC3-INFERNO&amp;tr=udp%3A%2F%2Ftracker.openbittorrent.com%3A80&amp;tr=udp%3A%2F%2Fopen.demonii.com%3A1337&amp;tr=udp%3A%2F%2Ftracker.coppersurfer.tk%3A6969&amp;tr=udp%3A%2F%2Fexodus.desync.com%3A6969","seeders":0,"leechers":0,"uploader":"16DodgE16","files":1,"time":1337349657,"description":"[b]General[/b]\nFormat                           : AVI\nFormat/Info                      : Audio Video Interleave\nFormat profile                   : OpenDML\nFile size                        : 2.70 GiB\nDuration                         : 1h 50mn\nOverall bit rate                 : 3 502 Kbps\nWriting application              : VirtualDubMod 1.5.4.1 (build 2178/release)\nWriting library                  : VirtualDubMod build 2178/release\n\n[b]Video[/b]\nID                               : 0\nFormat                           : MPEG-4 Visual\nFormat profile                   : Advanced Simple@L5\nFormat settings, BVOP            : Yes\nFormat settings, QPel            : No\nFormat settings, GMC             : No warppoints\nFormat settings, Matrix          : Custom\nMuxing mode                      : Packed bitstream\nCodec ID                         : XVID\nCodec ID/Hint                    : XviD\nDuration                         : 1h 50mn\nBit rate                         : 3 044 Kbps\nWidth                            : 1 280 pixels\nHeight                           : 536 pixels\nDisplay aspect ratio             : 2.35:1\nFrame rate                       : 23.976 fps\nColor space                      : YUV\nChroma subsampling               : 4:2:0\nBit depth                        : 8 bits\nScan type                        : Progressive\nBits/(Pixel*Frame)               : 0.185\nStream size                      : 2.34 GiB (87%)\nWriting library                  : XviD 64\n\n[b]Audio[/b]\nID                               : 1\nFormat                           : AC-3\nFormat/Info                      : Audio Coding 3\nMode extension                   : CM (complete main)\nCodec ID                         : 2000\nDuration                         : 1h 50mn\nBit rate mode                    : Constant\nBit rate                         : 448 Kbps\nChannel(s)                       : 6 channels\nChannel positions                : Front: L C R, Side: L R, LFE\nSampling rate                    : 48.0 KHz\nBit depth                        : 16 bits\nStream size                      : 353 MiB (13%)\nAlignment                        : Split accross interleaves\nInterleave, duration             : 42 ms (1.00 video frame)\nInterleave, preload duration     : 500 ms","torrent":{"xt":"urn:btih:b8b68ebd0d8066e0a38c82a9d30a543733992ec4","amp;dn":"Act.of.Valor.2012.720p.BRrip.XviD.AC3-INFERNO","amp;tr":["udp%3A%2F%2Ftracker.openbittorrent.com%3A80","udp%3A%2F%2Fopen.demonii.com%3A1337","udp%3A%2F%2Ftracker.coppersurfer.tk%3A6969","udp%3A%2F%2Fexodus.desync.com%3A6969"],"infoHash":"b8b68ebd0d8066e0a38c82a9d30a543733992ec4","infoHashBuffer":{"type":"Buffer","data":[184,182,142,189,13,128,102,224,163,140,130,169,211,10,84,55,51,153,46,196]},"announce":[],"urlList":[]}}